<?xml version="1.0" encoding="UTF-8"?>
<svg xmlns="http://www.w3.org/2000/svg" xmlns:xlink="http://www.w3.org/1999/xlink" width="0" height="0">
    <symbol id="active" width="18" height="18" fill="none"><path fill="#3470FF" stroke="#3470FF" stroke-linecap="round" stroke-linejoin="round" d="M15.63 3.458a4.125 4.125 0 0 0-5.835 0L9 4.253l-.795-.795A4.126 4.126 0 0 0 2.37 9.293l.795.795L9 15.922l5.835-5.835.795-.795a4.125 4.125 0 0 0 0-5.835Z"/></symbol>
    <symbol id="normal" width="18" height="18" fill="none"><path stroke="#fff" stroke-linecap="round" stroke-linejoin="round" stroke-opacity=".8" stroke-width="1.5" d="M15.63 3.458a4.125 4.125 0 0 0-5.835 0L9 4.253l-.795-.795A4.126 4.126 0 0 0 2.37 9.293l.795.795L9 15.922l5.835-5.835.795-.795a4.125 4.125 0 0 0 0-5.835Z"/></symbol>
    <symbol id="icon-close" width="16" height="16" viewBox="0 0 30 30"><path fill="none" stroke-linejoin="round" stroke-linecap="square" stroke-miterlimit="4" stroke-width="3" stroke="#000" d="M28 4l-24 24M4 4l24 24"></path></symbol>
</svg>
